<svg width="35" height="11" viewBox="0 0 35 11" xmlns="http://www.w3.org/2000/svg"><title>热销榜</title><path d="M1.89 8.274c-.06.893-.73 1.571-1.328 1.81-.24.142-.43.38-.323.63.132.286.55.274.909.084.538-.286 1.232-1.108.957-2.524h-.216zm2.32-4.929l.059.167c-.419.226-.897.5-1.459.821v2.548c0 .63-.12.988-1.124 1.083-.036-.226-.096-.404-.227-.535-.144-.108-.407-.203-.861-.262v-.19s1.004.07 1.22.07c.19 0 .25-.047.25-.214V4.738c-.418.214-.848.44-1.339.69a.414.414 0 0 1-.215.31L0 4.833c.419-.107 1.172-.369 2.069-.702V2.5H.263l-.096-.357H2.07V.036l1.16.13c-.036.167-.132.274-.419.31v1.667h.395l.502-.631s.562.452.897.798c-.024.13-.132.19-.3.19H2.81v1.369l1.4-.524zm-.778 5.012c.359.631.73 1.607.73 2.357.717.726 1.566-.94-.575-2.428l-.155.071zm2.535-.19c.454.654.968 1.678 1.028 2.476.79.714 1.53-1.095-.873-2.548l-.155.072zm2.499.012c.67.642 1.447 1.714 1.614 2.571.885.667 1.519-1.333-1.47-2.667l-.144.096zm2.368-2.489l-.096 1.334c.227.238.287.38.215.536-.131.297-.562.25-.98.047-1.292-.678-1.46-2.857-1.471-5.25H6.84c-.036.87-.12 1.667-.335 2.381 2.057 1.12 1.83 2.322 1.052 1.988-.275-.416-.741-.88-1.291-1.333-.479 1.012-1.316 1.857-2.834 2.5l-.144-.19C4.616 6.94 5.321 6.047 5.68 4.94c-.49-.345-.993-.666-1.423-.904l.108-.143c.562.155 1.052.333 1.458.512.144-.62.204-1.31.228-2.048H4.77L4.663 2h1.4c.011-.571.011-1.19.011-1.857l1.208.119c-.024.167-.12.274-.394.31-.012.488-.012.976-.024 1.428h1.53l.443-.452.897.726c-.084.083-.24.155-.467.178-.06 1.643.084 3.822.897 4.322.12.071.167.036.215-.095a9.46 9.46 0 0 0 .311-1.012l.144.023zM16.418.857l.155-.083c2.476 1.178 1.83 2.928 1.065 2.31-.084-.727-.682-1.68-1.22-2.227zm-1.28 5.214l.503-.642s.574.452.908.81c-.024.13-.131.19-.299.19h-1.757v2.654a54.404 54.404 0 0 0 1.745-1.297l.108.143c-.37.44-1.172 1.357-2.057 2.25a.704.704 0 0 1-.167.392l-.801-.75c.359-.297.43-.38.43-.56V6.43h-1.83l-.095-.358h1.925v-1.94h-1.076l-.06-.214a7.73 7.73 0 0 1-.61.738l-.167-.12c.718-1.13 1.459-3.225 1.71-4.523l1.208.393c-.024.143-.132.226-.443.238-.12.345-.25.702-.43 1.083h1.172l.502-.619s.562.44.897.774c-.036.13-.144.19-.311.19h-2.416c-.299.584-.621 1.179-1.004 1.703h2.116l.49-.62s.563.441.886.786c-.036.131-.132.191-.3.191h-1.422v1.94h.645zm2.272 1.584h4.006V6.06H17.41v1.595zm4.006-3.548H17.41v1.607h4.006V4.107zm-.12-.357l.407-.476.98.75c-.06.083-.262.19-.514.226v5.607c0 .631-.12 1.012-1.171 1.12-.036-.239-.072-.453-.228-.56-.167-.131-.442-.238-.92-.298v-.19s1.064.083 1.303.083c.203 0 .263-.072.263-.238V8H17.41v2.702c0 .096-.287.274-.621.274h-.132V3.357l.825.393h1.578V.06l1.148.119c-.024.154-.131.261-.394.31V3.75h1.483zm.371-3.107l1.088.583c-.071.12-.167.167-.442.12-.383.535-1.028 1.368-1.65 1.987l-.156-.13c.43-.774.933-1.893 1.16-2.56zm11.767 4.655l-.156-.084c.096-.226.24-.643.359-.964h-4.7c-.023.464-.179.821-.382 1.012-.215.178-.61.238-.753-.024-.108-.214.023-.464.25-.619.276-.19.587-.738.575-1.19l.215.011c.036.167.072.31.084.453h3.12c.204-.5.419-1.19.55-1.69l1.196.404c-.048.131-.203.226-.442.203-.24.321-.598.738-.945 1.083h1.22l.49-.488.885.869c-.096.083-.227.095-.454.107a42.6 42.6 0 0 1-1.112.917zm-2.918-.774l.131-.095c1.866.452 1.172 1.75.49 1.226-.071-.381-.358-.87-.621-1.131zm-1.172-2.179l.132-.071c1.925.643 1.207 1.952.538 1.405-.072-.44-.395-1-.67-1.334zm.933-2.178l.12-.096c2.056.489 1.422 1.989.693 1.453-.072-.476-.455-1.048-.813-1.357zm4.197 1.928H28.28l-.096-.345h5.022l.562-.702s.634.5 1.029.857c-.036.13-.156.19-.323.19zM26.498 3.18v1.238c2.093 1.095 1.47 2.523.765 1.952-.095-.512-.43-1.143-.765-1.643v5.964c0 .12-.323.298-.586.298h-.167v-5.69a10.244 10.244 0 0 1-1.866 3.023l-.167-.154c.92-1.393 1.53-3.19 1.853-4.988h-1.494l-.096-.346h1.77V0l1.184.143c-.036.178-.132.286-.43.333v2.357h.465l.515-.678s.586.476.944.833c-.024.131-.143.19-.31.19h-1.615zm6.72 2.678l.538-.667s.61.465 1.005.822c-.036.13-.144.19-.311.19h-3.72c-.036.346-.072.703-.143 1.072h2.343l.43-.453.862.727c-.072.083-.215.142-.455.166-.107 1.596-.37 2.584-.825 2.929-.287.202-.681.31-1.112.31 0-.215-.036-.405-.191-.524-.156-.12-.562-.215-.957-.274l.012-.203c.419.036 1.172.096 1.387.096.204 0 .3-.024.407-.108.215-.19.43-1.011.538-2.309h-2.523c-.287 1.214-1.005 2.417-2.75 3.369l-.168-.19c1.985-1.405 2.236-3.12 2.296-4.608h-1.65l-.096-.345h5.082z" fill="#93979D" fill-rule="evenodd"/></svg>