<?xml version="1.0" standalone="no"?><!DOCTYPE svg PUBLIC "-//W3C//DTD SVG 1.1//EN" "http://www.w3.org/Graphics/SVG/1.1/DTD/svg11.dtd"><svg class="icon" width="100px" height="200.00px" viewBox="0 0 1024 1024" version="1.1" xmlns="http://www.w3.org/2000/svg"><path fill="#ffffff" d="M834.442808888889 572.5445688888889H12.144640000000038v54.66339555555555c54.801066666666664 13.976462222222223 95.48686222222223 63.38104888888889 95.48686222222223 122.61148444444443 0 59.22929777777778-40.68579555555555 108.77155555555555-95.48686222222223 122.61034666666667v54.66339555555555h822.2981688888888c97.97859555555556 0 177.27488-79.43395555555554 177.27488-177.2737422222222 0-97.97859555555556-79.29628444444444-177.27488-177.27488-177.27488z m0 307.77344H95.03857777777779c36.81052444444445-32.10581333333333 59.36810666666667-79.15747555555555 59.36810666666667-130.49856 0-51.34222222222222-22.557582222222223-98.39502222222222-59.36924444444445-130.49969777777778h739.4053688888889c71.96103111111111 0 130.49969777777778 58.53866666666667 130.49969777777778 130.49969777777778s-58.53866666666667 130.49856-130.49969777777778 130.49856z m0 0M1011.8553599999999 155.58314666666666v-54.66339555555555H189.4183822222222c-97.83978666666667 0-177.2737422222222 79.43509333333333-177.2737422222222 177.27488s79.43395555555554 177.4125511111111 177.2737422222222 177.4125511111111h822.2993066666667v-54.66339555555555c-54.80220444444444-13.976462222222223-95.488-63.51985777777778-95.488-122.61148444444443 0.13880888888888887-59.36810666666667 40.68693333333333-108.91036444444444 95.62567111111112-122.74915555555556zM869.5933155555557 278.1946311111111c0 51.34108444444444 22.557582222222223 98.39274666666665 59.36924444444445 130.49856H189.41724444444446c-71.96103111111111 0-130.49856-58.537528888888886-130.49856-130.49856 0-71.9621688888889 58.537528888888886-130.49969777777778 130.49856-130.49969777777778h739.4042311111111c-36.81052444444445 32.10581333333333-59.22929777777778 79.15747555555555-59.22929777777778 130.49969777777778z m0 0" /></svg>