<?xml version="1.0" standalone="no"?><!DOCTYPE svg PUBLIC "-//W3C//DTD SVG 1.1//EN" "http://www.w3.org/Graphics/SVG/1.1/DTD/svg11.dtd"><svg class="icon" width="200px" height="200.00px" viewBox="0 0 1024 1024" version="1.1" xmlns="http://www.w3.org/2000/svg"><path fill="#ffffff" d="M513.398741 432.150137c-0.973037-0.12163-2.189334-0.243259-3.40563-0.24326-8.514075 0-16.176743 3.40563-21.771707 9.000594L242.772776 686.356099c-5.594964 5.594964-9.000594 13.257632-9.000594 21.771707 0 8.514075 3.40563 16.176743 9.000594 21.771707 5.594964 5.594964 13.257632 9.000594 21.771707 9.000594 8.514075 0 16.176743-3.40563 21.771707-9.000594l227.082551-226.839292 226.960922 226.960922c5.473334 5.351704 13.014372 8.635705 21.406818 8.635705 17.028151 0 30.772301-13.74415 30.7723-30.772301 0-8.270816-3.284-15.811854-8.635705-21.406818L538.454448 441.15073c-5.594964-5.594964-13.379261-9.122224-21.893336-9.122223-1.094667 0-2.189334 0-3.40563 0.12163h0.243259z m-224.28507-104.601497h448.935028c17.028151 0 30.772301 13.74415 30.772301 30.772301s-13.74415 30.772301-30.772301 30.7723H289.113671c-17.028151 0-30.772301-13.74415-30.7723-30.7723s13.86578-30.772301 30.7723-30.772301z m0 0" /></svg>