<svg width="106" height="28" viewBox="0 0 106 28" xmlns="http://www.w3.org/2000/svg"><title>logo-hongxium</title><path d="M16.212 17.138c.848-.042 1.61-.392 1.951-1.206.825-1.97-2.13-4.448-3.104-5.978-.973-1.53-.648-4.446 1.868-5.449 3.275-1.302 6.88.78 8.276 3.06 1.032 1.689.84 4.393-.332 9.073-.485 1.935-.528 4.258 1.529 6.078 1.236 1.092 4.823 2.97 7.504.864 2.609-2.048 2.974-5.19 2.654-6.965-.726-4.023-1.21-5.18-1.366-8.338-.109-2.237.108-3.196.855-4.78.528-1.12 2.07-2.628 2.07-2.628s-.935 2.107-.78 5.265c.113 2.29 1.779 4.935 1.78 7.92.003 4.246-2.082 8.258-5.03 10.255-2.15 1.456-6.497 2.048-9.655.409-2.723-1.413-3.697-5.309-2.656-8.102.683-1.83 1.97-4.946 2.143-7.015.178-2.112-1.565-4.524-4.292-4.822-2.04-.223-3.304.663-3.752 1.639a1.52 1.52 0 0 0-.13.556c.33-.352.776-.73 2.277-.99 1.66-.286 3.934.998 4.405 2.489.562 1.782-.179 3.65-1.09 6.148-.91 2.498-1.992 4.621-.97 7.913.779 2.504 3.205 3.915 4.853 4.325 1.42.353 3.615.137 3.615.137s-.971.636-2.014.819c-1.907.335-3.206.154-4.844-.352-1.707-.529-3.453-2.177-4.087-3.55-.598-1.3-.725-2.882-.582-4.267.1-.97.558-2.235.558-2.235l.083-.232c-1.502.92-3.396.686-5.052-.447-2.69-1.843-3.228-5.173-4.525-6.891-1.3-1.72-2.316-2.818-3.639-3.772-.901-.65-1.64-.98-2.662-1.232C1.723 2.73.971.994 0 0c1.092.53 2.97 1.573 4.655 2.965 2.66 2.202 5.022 5.699 5.575 7.132.553 1.433 1.4 4.14 2.785 5.809.432.52 1.256.954 2.13 1.14.048-.035.12-.072.225-.114.814-.325.93-1.338.734-1.878-.255-.701-2.041-2.343-2.81-3.484-.768-1.143-.748-1.941-.673-2.264.075-.323.685-1.877.685-1.877s-.116 1.317.402 2.406c.587 1.23 1.845 1.855 3.1 4.075 1.257 2.219-.28 3.117-.28 3.117l-.316.11zm-.39-9.438c.205.848.785 1.83 1.561 2.732.67.777 1.577 1.762 2.04 2.81.145-.346.59-1.44.898-2.531.372-1.32.4-2.357-.175-3.104-.446-.576-1.716-.79-2.329-.726-.753.08-1.385.342-1.883.73l-.111.09zM13.54 18.41c.926.3 2.33.426 2.33.426l-.2.18-.978.18s-.878.134-2-.266c-1.615-.576-2.366-1.408-3.378-2.63-1.33-1.606-1.751-2.674-3.42-4.327C4.53 10.623 2.77 9.949 2.027 9.71a16.695 16.695 0 0 0 .01-3.603c.385.166.873.389 1.133.543 1.881 1.114 2.927 2.334 4.156 4.036 1.228 1.703 1.484 2.915 2.844 4.915.799 1.172 1.713 2.269 3.37 2.808zM34.853 3.597s-.774 2.169-.881 4.368c-.204 4.185.573 5.873.948 7.957.961 5.326-3.02 7.784-3.02 7.784l-.952.112s.684-.721.999-1.25c.594-1.002 1.97-2.803.137-8.194-1.053-3.096-.552-6.22.824-8.513.864-1.441 1.945-2.264 1.945-2.264zm64.673 20.858V22.75c0-.3.03-.528.09-.687a.7.7 0 0 1 .29-.362.803.803 0 0 1 .433-.124c.207 0 .355.062.446.186.09.123.136.31.136.557v2.136h.561v-1.91c0-.338.077-.585.23-.739a.779.779 0 0 1 .577-.23c.129 0 .241.03.336.09.095.06.161.138.197.237.036.097.055.258.055.48v2.072h.56v-2.26c0-.375-.088-.654-.263-.835-.177-.18-.43-.271-.758-.271-.42 0-.76.193-1.021.58a.816.816 0 0 0-.33-.427c-.156-.102-.356-.153-.6-.153a1.15 1.15 0 0 0-.996.539v-.464h-.504v3.291h.561zm-4.004-1.647c0-.421.092-.736.275-.944a.883.883 0 0 1 .693-.312.88.88 0 0 1 .687.313c.185.21.277.517.277.924 0 .431-.092.752-.276.963a.873.873 0 0 1-.688.315.88.88 0 0 1-.693-.314c-.183-.209-.275-.524-.275-.945zm-.568.001c0 .556.141.982.423 1.278.283.295.654.443 1.113.443.286 0 .55-.068.791-.201.242-.135.425-.324.552-.567.127-.242.19-.575.19-1 0-.522-.143-.931-.429-1.228-.285-.297-.654-.445-1.104-.445-.406 0-.748.122-1.03.366-.338.294-.506.745-.506 1.354zm-1.372.442c-.04.277-.133.482-.28.616a.782.782 0 0 1-.546.2.825.825 0 0 1-.663-.3c-.169-.199-.252-.52-.252-.96 0-.436.086-.753.261-.955.176-.2.403-.3.683-.3.185 0 .343.055.474.165.13.11.222.275.273.494l.545-.074c-.064-.335-.21-.594-.436-.775-.226-.182-.519-.273-.875-.273-.282 0-.543.066-.783.2a1.23 1.23 0 0 0-.536.6 2.294 2.294 0 0 0-.176.933c0 .549.136.972.409 1.266.272.294.633.442 1.081.442.358 0 .66-.107.907-.32.245-.213.399-.508.458-.885l-.544-.074zm-4.192 1.204h.636v-.635h-.636v.635zm-1.05 0v-3.291h-.561v1.764c0 .281-.03.496-.09.644a.72.72 0 0 1-.31.35.904.904 0 0 1-.468.13.683.683 0 0 1-.42-.127.578.578 0 0 1-.22-.345c-.024-.101-.035-.298-.035-.59v-1.826h-.56v2.04c0 .237.01.41.033.52.032.163.09.301.171.413a.89.89 0 0 0 .374.281c.168.074.348.112.542.112.438 0 .786-.186 1.041-.557v.482h.503zm-4.474 0h.56v-3.291h-.56v3.291zm0-3.902h.56v-.636h-.56v.636zm-3.272 3.902l.882-1.261.151.242.685 1.02h.683l-1.194-1.708 1.12-1.584h-.685l-.553.781-.249.352a6.32 6.32 0 0 0-.222-.363l-.519-.77h-.694l1.115 1.586-1.205 1.705h.685zm-3.898-1.705c0-.397.087-.695.261-.897a.812.812 0 0 1 .636-.301c.253 0 .47.101.65.305.179.206.269.51.269.912 0 .422-.088.731-.262.928a.83.83 0 0 1-.647.296c-.26 0-.476-.1-.649-.298-.171-.198-.258-.513-.258-.945zm-.453 1.978c-.009.355.107.622.348.799.241.177.557.265.949.265.33 0 .607-.062.833-.186.225-.124.39-.293.494-.507.104-.214.156-.577.156-1.09v-2.846h-.511v.404c-.252-.318-.572-.478-.961-.478-.29 0-.544.073-.76.217-.216.145-.38.35-.494.615-.113.266-.17.556-.17.87 0 .456.124.848.372 1.175.248.326.598.49 1.051.49.364 0 .668-.143.912-.429.002.362-.011.601-.04.714a.766.766 0 0 1-.284.434c-.14.104-.34.155-.597.155-.239 0-.428-.052-.566-.157-.102-.078-.166-.201-.188-.371l-.544-.074zm-3.153-.273V22.66c0-.422.085-.708.256-.858a.892.892 0 0 1 .61-.226.73.73 0 0 1 .385.1.54.54 0 0 1 .228.27c.043.112.064.282.064.51v2h.561V22.43c0-.258-.01-.439-.03-.542a1.073 1.073 0 0 0-.173-.412.852.852 0 0 0-.372-.281 1.37 1.37 0 0 0-.544-.107c-.455 0-.802.18-1.043.541v-.466h-.503v3.291h.561zm-4.27-1.647c0-.421.091-.736.275-.944a.88.88 0 0 1 .692-.312c.274 0 .503.104.687.313.185.21.277.517.277.924 0 .431-.092.752-.275.963a.874.874 0 0 1-.69.315.877.877 0 0 1-.69-.314c-.185-.209-.276-.524-.276-.945zm-.57.001c0 .556.141.982.425 1.278.282.295.653.443 1.112.443.286 0 .55-.068.792-.201.24-.135.425-.324.55-.567.128-.242.191-.575.191-1 0-.522-.143-.931-.429-1.228-.286-.297-.653-.445-1.104-.445-.405 0-.749.122-1.03.366-.338.294-.506.745-.506 1.354zm-3.045 1.646v-1.802c0-.258.031-.46.091-.608a.73.73 0 0 1 .308-.349.881.881 0 0 1 .46-.129c.218 0 .386.064.505.191s.18.33.18.61v2.087h.56V22.37c0-.322-.038-.568-.115-.738a.843.843 0 0 0-.382-.398 1.308 1.308 0 0 0-.63-.144c-.393 0-.72.15-.977.451v-1.623h-.56v4.538h.56zm-2.227 0h.635v-.635h-.635v.635zm-3.252 0l.672-2.532.137.563.52 1.97h.567l1.045-3.292h-.541l-.574 1.905-.189.633-.161-.626-.5-1.912h-.564l-.53 1.928a32.66 32.66 0 0 0-.17.678l-.188-.704-.518-1.902h-.587l.989 3.291h.592zm-5.538 0l.673-2.532.136.563.521 1.97h.567l1.045-3.292h-.542l-.573 1.905-.19.633-.161-.626-.5-1.912H54.6l-.53 1.928a42.82 42.82 0 0 0-.17.678l-.188-.704-.518-1.902h-.587l.99 3.291h.591zm-6.13 0l-.989-3.291h.586l.519 1.902.187.704.171-.678.53-1.928h.565l.5 1.912.16.626.19-.633.573-1.905h.542l-1.046 3.291h-.567l-.52-1.969-.137-.563-.673 2.532h-.59zm.082-9.692v-.028c.098.028.098.035 0 .028zm11.278-6.27a3.072 3.072 0 0 1-.644-.013.041.041 0 0 0-.04.027 1.02 1.02 0 0 1-.282.174h-.055a5.622 5.622 0 0 0-1.882.188c0 .028-.004.04-.012.04-.062.026-.098.08-.109.161h-.066c-.672.251-1.293.335-1.865.255h-.04c-.036.233-.174.362-.417.389a.119.119 0 0 1-.012.053c-.055.134-.09.287-.108.456a.154.154 0 0 0-.067.014c-.188.09-.273.278-.255.565-.027-.001-.045.003-.054.012a.57.57 0 0 1-.268.188.131.131 0 0 1-.013.053.977.977 0 0 1-.443.591.156.156 0 0 1-.014.053c-.037.046-.055.112-.054.202a.055.055 0 0 0-.039.016c-.09.152-.207.278-.35.377a.117.117 0 0 1-.013.054.469.469 0 0 0-.04.268c-.027 0-.045.004-.054.014a1.056 1.056 0 0 1-.403.36h-.067a2.035 2.035 0 0 1-.767-.32c-.002-.018.003-.032.012-.04.198-.108.365-.242.5-.404v-.066c-.027-.243-.004-.436.068-.58 0-.028.004-.041.013-.041a.915.915 0 0 0 .241-.215h.511c0 .017.005.027.014.027a.535.535 0 0 0 .63-.094c0-.027.007-.045.027-.053.151-.225.25-.506.294-.847a.04.04 0 0 1-.039-.025 2.594 2.594 0 0 1-.47-.565h-.068c-.26-.07-.474-.089-.643-.053v-.04c-.277-.036-.492-.128-.645-.282 0-.027-.004-.045-.013-.054a4.345 4.345 0 0 0-.432-.469.107.107 0 0 1 .012-.054c.306-.403.624-.79.956-1.167a.134.134 0 0 0 .055-.013c.071-.053.139-.05.2.013 0-.017.005-.03.014-.04.42-.143.714-.407.885-.792V6.75c-.027-.27-.004-.483.067-.645h-.04c-.017-.305-.133-.5-.348-.58v-.04a7.014 7.014 0 0 0-.71-.094.138.138 0 0 1-.055-.014 1.36 1.36 0 0 0-.335-.175.118.118 0 0 1-.055-.013 4.106 4.106 0 0 0-1.425.067c0-.016-.005-.027-.013-.027a1.74 1.74 0 0 0-.63-.16.098.098 0 0 0-.054.014c-.18.097-.354.2-.524.308-.028 0-.04.004-.04.013-.127.467-.157.87-.095 1.21 0 .028-.003.046-.012.054a.566.566 0 0 0-.175.336.066.066 0 0 1-.013.04c-.502.108-.78.438-.832.993a.125.125 0 0 1-.013.053c-.313.412-.648.801-1.007 1.169a.131.131 0 0 0-.068.013 1.503 1.503 0 0 1-.71.173c-.02 0-.032.01-.042.028a.766.766 0 0 1-.415.24c0 .018-.004.033-.012.041l-.363.336a.156.156 0 0 1-.015.067c-.036.09-.077.174-.12.255v.2c.073.073.094.202.067.39v.053c.046.072.095.134.148.189a.059.059 0 0 0 .04.013c.125.385.313.713.565.984.007.008.013.025.013.053.133 0 .262.01.39.026v.028c.14.204.328.366.562.483.008-.002.013.013.013.04.126-.036.237-.076.336-.122a.128.128 0 0 1 .054-.013c.017-.116.085-.18.2-.187h.055a.997.997 0 0 1 .241-.403c.018-.009.026-.026.028-.054a.912.912 0 0 1 .442-.12h.068c-.028-.119.016-.173.133-.165v-.04c.208-.018.336-.022.39-.013a.14.14 0 0 0 .052.013c-.197.43-.554.807-1.072 1.131-.008-.002-.013.013-.013.04-.1.143-.144.335-.135.577v.066c-.126.126-.148.317-.067.577v.068c.072.116.143.236.215.362.007.008.022.013.04.013-.036.278.027.46.187.551.01-.001.013.013.013.039.09.018.157.038.202.055h.055c.116.098.227.201.335.309.007.007.025.012.053.012.17-.126.344-.245.524-.362a.117.117 0 0 1 .053-.014c.125-.16.256-.259.39-.295v.027c-.134.644-.461 1.09-.98 1.342a.147.147 0 0 1-.055.013c.027.116.01.188-.053.215a.057.057 0 0 0-.014.04.425.425 0 0 0-.214.19.062.062 0 0 1-.04.012c-.1.699-.1 1.365 0 2.001v.055c.143.16.308.3.496.416.01.007.014.022.014.04h.134c0-.018.003-.033.012-.04.51-.231.873-.605 1.089-1.113.016 0 .034-.01.053-.027a.387.387 0 0 1 .201-.041.17.17 0 0 1 .014-.071c.376-.706.735-1.435 1.077-2.187.026 0 .038-.004.04-.013a.43.43 0 0 1 .227-.188v-.053c.019-.198.105-.327.255-.389 0-.027.006-.05.013-.067.082-.206.162-.422.243-.645.018 0 .03-.006.04-.012a.2.2 0 0 1 .148-.121.12.12 0 0 1 .014-.054.984.984 0 0 1 .12-.456c0-.018.003-.036.013-.054.304-.313.6-.64.886-.98v-.322c.028 0 .04-.004.04-.013.17-.26.372-.494.603-.702a.12.12 0 0 0-.012-.053c-.046-.144-.019-.318.08-.524.018 0 .03-.004.04-.013.108-.133.224-.259.35-.375v-.054c.007-.43.092-.667.253-.71a.12.12 0 0 1 .054.012c.153.143.35.246.592.308a.051.051 0 0 0 .013.042c.053.053.112.102.173.147 0 .028.005.044.015.055a.349.349 0 0 1 .052.2c.028-.001.046.009.054.026.127.126.237.27.336.43a.51.51 0 0 1 .322.19v.845a.053.053 0 0 0-.04.016 2.86 2.86 0 0 0-.35 1.018c0 .018-.005.027-.012.027-.127.053-.184.169-.175.35a.137.137 0 0 0-.067.012c-.082.046-.125.13-.135.255-.017 0-.03.004-.04.015a7.18 7.18 0 0 1-.402.495v-.027c-.08.045-.126.033-.133-.04h-.069c-.34.01-.7.01-1.086 0a.06.06 0 0 0-.013-.039 1.76 1.76 0 0 0-.51-.149c0 .018-.005.032-.013.04-.18.082-.282.239-.31.47-.018 0-.027.005-.026.015-.036.061-.111.08-.229.052a.127.127 0 0 1-.014.054c-.08.107-.138.242-.173.402-.028 0-.045.005-.054.014a.695.695 0 0 0-.268.31v.052c.018.242.058.456.12.644.027 0 .04.005.04.014.09.197.23.344.417.442h.066a2.49 2.49 0 0 0 1.034-.254h.053c.286.016.484-.028.592-.135h.053c.286.027.5-.013.645-.12v-.04c.187.053.424.066.71.04 0-.027.005-.042.012-.04a.553.553 0 0 0 .243-.228c.027 0 .049.004.067.013.277.036.452-.031.523-.2.018 0 .036.003.054.012a1.3 1.3 0 0 0 .647.053v-.04c.116.01.184-.022.2-.094h.068c.179.008.305.054.377.134h.067c.59-.027 1.193-.027 1.812 0-.002-.027.002-.044.013-.053.206-.277.393-.474.563-.59.017 0 .036.004.053.013.17.108.3.08.39-.08a.15.15 0 0 1 .012-.054c.117-.241.073-.416-.133-.523a.174.174 0 0 0-.012-.068c-.18-.474-.52-.688-1.02-.643a.175.175 0 0 1-.055-.014 14.522 14.522 0 0 0-1.1-.443c0-.018-.009-.031-.027-.04a.657.657 0 0 1-.175-.335c0-.027.005-.05.014-.067a2.16 2.16 0 0 1 .563-.97v-.522h-.026a2.84 2.84 0 0 0-.094-.324c-.027 0-.045-.004-.054-.012a1.553 1.553 0 0 1-.403-.43c0-.026.005-.04.014-.04.18-.046.367-.077.563-.094 0-.018.006-.027.014-.027a.717.717 0 0 0 .376-.162h.777c0-.027.006-.04.015-.04.098-.062.2-.116.308-.16v-.053c.027-.19.05-.386.068-.592a.048.048 0 0 0-.028-.04 1.382 1.382 0 0 0-.173-.146.153.153 0 0 0-.015-.055c-.045-.062-.062-.152-.052-.269a.06.06 0 0 0-.015-.038 1.943 1.943 0 0 1-.242-.15h-.066c-.18 0-.372-.089-.577-.267a.214.214 0 0 0-.067.013zm6 .055c.143.088.309.166.498.227.008 0 .013.009.013.027.117.33.286.702.51 1.113.009.008.012.027.012.055-.15.07-.2.24-.146.509.008.028.013.05.013.068a.805.805 0 0 0-.402.307.093.093 0 0 1-.053.015c-.17.053-.386.053-.646 0h-.054c-.036-.116-.124-.18-.268-.189h-.053a1.32 1.32 0 0 1-.254-.403.102.102 0 0 1-.014-.054 1.41 1.41 0 0 1-.363-.456.112.112 0 0 1-.013-.053c-.054-.116-.063-.205-.027-.269.018-.017.027-.035.027-.053-.125-.205-.193-.528-.202-.965V8.36c.197.007.389.025.578.052a.267.267 0 0 0 .067.015c.133.08.37.12.71.12h.068zm1.732 9.478c.097.017.097.026 0 .028v-.028zm4.54-2.217c-.019-.009-.028-.023-.028-.041.089.099.099.112.027.04zm1.903-.014v-.027c.1.018.1.027 0 .027zm-2.575-3.662v-.04c.098.027.098.04 0 .04zm0 .348c.448-.027.448-.017 0 .027v-.027zm2.642 2.228v-.04c.099.027.099.04 0 .04zm.698-.47c.01.009.013.023.014.04.01.143.01.273 0 .39v.066c-.189 0-.38-.009-.577-.026v-.04c-.081-.099-.103-.247-.067-.443v-.068c.178-.116.39-.089.63.082zm-2.75.952c.097.018.097.027 0 .027v-.027zm.322-1.73a.128.128 0 0 1 .053-.013c.242 0 .48.01.712.027v.04c-.046.268-.17.469-.377.603-.008 0-.012.013-.012.04.053.143.027.308-.08.498a.068.068 0 0 1-.042.013 2.101 2.101 0 0 1-.563-.524.14.14 0 0 1-.013-.055c.026-.294.135-.504.322-.63zm-.375-1.517a.062.062 0 0 1-.014-.043c.232-.375.567-.73 1.006-1.06.019 0 .027-.012.027-.039.198.052.35.018.457-.109a.127.127 0 0 1 .052-.013c.117-.108.18-.09.19.054v.068c-.01.16-.043.307-.095.442 0 .008-.01.013-.027.013.045.26.005.439-.12.537-.01.008-.014.021-.014.04.036.09.058.2.066.326v.066a.67.67 0 0 0-.28.31.067.067 0 0 1-.04.013 3.347 3.347 0 0 1-1.195-.135h.04c.197-.178.179-.335-.053-.47zm3.783-1.532a.985.985 0 0 0 .149.187c.01.01.023.013.042.013.063.135.117.282.16.443h.042c-.062.386-.05.65.04.792.017.01.026.027.028.054a5.588 5.588 0 0 1-.328 1.037v.053c.055.09.037.183-.051.282a.052.052 0 0 0-.015.04c-.16.018-.276.08-.348.188a.056.056 0 0 1-.04.014 2.103 2.103 0 0 1-.82-.779.17.17 0 0 1-.014-.067.844.844 0 0 0 .19-.509v-.067a1.44 1.44 0 0 0 .092-.326h-.025c.09-.098.129-.246.12-.443v-.067c.17-.295.246-.594.228-.9h.04c.135-.071.285-.057.457.042a.135.135 0 0 0 .053.013zm-1.099-6.12a.127.127 0 0 1-.056-.015c-.142-.106-.209-.059-.2.147h-.067a.69.69 0 0 0-.376.135v.054c0 .312.06.572.188.778.018 0 .032.004.041.012a.201.201 0 0 0 .147.122.12.12 0 0 0 .014.054.754.754 0 0 0 .12.326v.066a74.313 74.313 0 0 1-.322 2.964c-.019 0-.032.006-.04.015a5.309 5.309 0 0 1-.148.495c0 .028-.005.04-.013.04-.233.037-.402.131-.51.282v-.025a1.618 1.618 0 0 0-.711.415.103.103 0 0 0-.053.013c-.233.09-.43.215-.591.377 0 .016.004.04.013.065.017.108-.073.215-.268.324 0 .017-.005.03-.012.04-.064.026-.083.098-.056.214a.125.125 0 0 0-.052.014 1.093 1.093 0 0 0-.323.24c0 .028.005.046.013.053.117.217.046.328-.214.338v.066c-.082.28-.296.428-.644.447v.039c-.081-.313-.081-.67 0-1.063 0-.027-.005-.045-.013-.052a.987.987 0 0 1-.243-.538h-.067a7.185 7.185 0 0 0-1.035.068c0 .027-.006.044-.013.052a.543.543 0 0 1-.31.201c0 .027-.005.046-.013.054a2.91 2.91 0 0 1-.242.215.139.139 0 0 1-.014.055.811.811 0 0 0-.106.32.149.149 0 0 0-.068.015c-.17.08-.256.253-.255.512-.026 0-.04.006-.04.015-.063.16-.201.24-.416.24a.114.114 0 0 1-.014.055c-.08.17-.16.342-.241.523-.027 0-.046.003-.053.013a1.498 1.498 0 0 1-.525.309c0-.019.005-.037.015-.055.133-.24.215-.546.242-.912-.027 0-.041-.004-.04-.013a1.408 1.408 0 0 1-.095-.24.167.167 0 0 1-.054-.015c-.108-.081-.13-.138-.068-.174v-.07a.809.809 0 0 0-.133-.78h-.067c-.117.01-.264.031-.442.068a.062.062 0 0 0-.013-.04c-.17-.08-.296-.09-.377-.027-.027 0-.046.004-.053.014a.63.63 0 0 1-.336.242c0 .026-.006.044-.014.053a.764.764 0 0 0-.12.335.133.133 0 0 0-.054.014c-.447.135-.815.346-1.1.633h-.068a7.79 7.79 0 0 1-.648 0c0 .028.005.05.014.067.046.143.063.313.054.51.019 0 .031.01.04.027.199.25.4.5.607.752a.105.105 0 0 1 .055.013c.124.044.237.102.336.175h.053c.088-.038.2.007.336.132.018 0 .031-.002.04-.012.116-.18.295-.26.537-.24h.026c-.053.391-.215.691-.483.897a.135.135 0 0 1-.012.054 2.14 2.14 0 0 0-.108.402h-.041c.008.108-.045.15-.162.123v.066c-.008.134-.07.219-.186.254 0 .027-.006.05-.014.068a1.554 1.554 0 0 1-.242.388v.068c.008.178-.036.304-.135.375v.067c-.018.268.005.569.068.9a.16.16 0 0 1 .054.012c.117.037.228-.007.335-.133.017 0 .03.004.04.013.063.09.134.17.215.242a.153.153 0 0 0 .054-.014c.277-.108.451-.318.523-.63a.064.064 0 0 0 .04-.015 3.49 3.49 0 0 1 .349-.375h.027c0 .197.054.328.16.39v.321c.027 0 .04.005.04.014.099.324.237.598.417.822h.054c.178-.063.308-.063.389 0 .028 0 .05.004.067.013.142.045.228.149.255.309.026 0 .044.009.054.027.053.071.125.063.215-.027h.027a.824.824 0 0 1 .294-.514c-.027 0-.044-.005-.054-.013-.126-.152-.174-.384-.147-.698h-.027c0-.152-.053-.236-.161-.254v-.323c-.027 0-.04-.005-.04-.012a2.237 2.237 0 0 0-.281-.698v-.067a6.66 6.66 0 0 1 .066-1.155.06.06 0 0 0 .04-.013c.091-.072.117-.197.08-.376.027 0 .05.005.068.014.241.044.327-.067.255-.336a.12.12 0 0 1 .014-.053.86.86 0 0 1 .242-.268.115.115 0 0 1 .013-.054c.124-.206.164-.404.12-.59 0-.019.004-.033.014-.04.152-.117.232-.296.241-.538a.149.149 0 0 0 .068-.012c.214-.055.344-.202.389-.443a.069.069 0 0 0 .04-.015c.124-.107.278-.19.463-.244-.122.93-.205 1.813-.249 2.647 0 .017-.004.04-.013.067a1.244 1.244 0 0 0-.053.388c.026 0 .038.005.04.014.089.107.16.228.215.363h.067c.205-.055.335-.072.39-.055.016 0 .035.005.052.014.117.117.27.13.46.04.026 0 .04-.005.04-.014a2.42 2.42 0 0 1 .483-.562h.053c.206-.047.273-.13.201-.255a.068.068 0 0 0 .04-.013c.099-.234.238-.421.417-.563.018-.002.027.003.027.012.08.17.18.314.296.43a.181.181 0 0 1-.014.066c0 .09.005.173.014.255.017 0 .025.005.025.014.072.142.148.268.229.375h-.04c.052.143 0 .228-.162.256 0 .027.005.044.015.053.116.18.134.398.053.658.026 0 .044.004.053.013.108.106.219.21.335.308h.322c0 .027.006.046.015.054.107.097.21.103.308.013v-.067c0-.206.045-.206.134 0v.041c.341-.116.617-.3.833-.551a.11.11 0 0 1 .051.014c.135.054.162.135.082.24 0 .019-.005.028-.013.028-.331.071-.48.214-.444.43v.025c.449-.233.878-.241 1.29-.025.017 0 .035.004.052.013.082.045.172-.004.27-.148h.067c.259 0 .428-.085.508-.255h.068c.234-.009.365-.116.393-.322a.122.122 0 0 0 .053-.012c.046-.037.113-.054.203-.054 0-.018.003-.037.012-.054.162-.179.326-.353.496-.523a.14.14 0 0 1 .014-.067 15.5 15.5 0 0 1 .376-.9v-.32h.04c-.018-.117.013-.184.094-.202v-.377c.018 0 .027-.005.027-.013.046-.126.099-.228.162-.308v-.067c.17-1.103.04-2.008-.391-2.714a.057.057 0 0 1-.04-.013 1.203 1.203 0 0 1-.336-.497.163.163 0 0 1-.065-.013 2.05 2.05 0 0 1-.525-.309h-.322v-.04c-.118.01-.18-.022-.191-.094a.203.203 0 0 0-.068.014c-.08.016-.226.012-.442-.014v-.053c.35-1.164.39-2.328.122-3.494v-.32c-.019-.002-.031-.005-.04-.015a.686.686 0 0 1-.148-.375c-.029 0-.045-.005-.054-.013a16.898 16.898 0 0 0-.469-.63zM90.74 14.6c.027-.277-.036-.47-.188-.577 0-.017-.005-.027-.012-.027a35.414 35.414 0 0 0-1.275-.094c0 .018-.006.027-.014.027a2.84 2.84 0 0 0-.443.16v.068a.284.284 0 0 1-.135.188c0 .026.01.045.027.055.179.268.475.424.887.468 0 .018.005.027.013.027.062.036.098.09.107.162.027 0 .044.004.055.012.133.082.306.12.521.12.027 0 .045-.008.054-.025.162-.134.295-.3.403-.496V14.6zm-9.896-2.2a1.341 1.341 0 0 1-.094-.428.06.06 0 0 1-.04-.013.959.959 0 0 0-.603-.446v-.03c-.117.037-.225.09-.322.162 0 .019.003.035.012.053.135.224.193.53.175.917h.04c-.008.107.022.17.095.188v.067a790.07 790.07 0 0 1-.068 2.897.056.056 0 0 0-.04.014l-.403.885a.12.12 0 0 0 .014.055c.053.117.067.268.04.455.027 0 .04.005.041.014.072.206.147.398.227.577.018 0 .032.004.04.012.054.053.103.113.149.175.016 0 .04.005.067.014.357.135.765.154 1.22.057 0-.028.004-.042.014-.044a.888.888 0 0 1 .38-.162c0-.016.004-.03.013-.04.169-.133.313-.29.43-.47a.21.21 0 0 1 .012-.065c.017-.197-.049-.304-.202-.323a.116.116 0 0 0-.013-.054 8.907 8.907 0 0 0-.174-.523c-.026 0-.046-.005-.053-.013a3.058 3.058 0 0 1-.406-.496.14.14 0 0 1 .013-.068c.035-.107.054-.237.054-.388v-.027c-.162-.018-.27.035-.322.161-.028 0-.04-.007-.04-.013-.107-.734-.18-1.764-.216-3.087-.026 0-.04-.004-.04-.013zm.136-6.674a.765.765 0 0 1-.298.446v.053a1.914 1.914 0 0 1-.118.644v.066c.178.501.195 1.082.053 1.745.025 0 .043-.004.053-.013.089-.108.178-.211.269-.308h.067c.205.034.38.097.522.188h.446c0-.019.005-.033.014-.041.268-.143.501-.322.698-.537 0-.018.004-.036.013-.053.036-.09.077-.178.12-.27v-.509c-.028 0-.04-.005-.04-.013a2.98 2.98 0 0 0-1.197-1.346h-.054a8.845 8.845 0 0 0-.522-.067c-.018 0-.026.004-.026.015zm7.962.404c.223-.055.33-.216.323-.487a.063.063 0 0 0-.014-.04c-.33-.258-.777-.393-1.342-.402 0 .018-.004.027-.014.027-.779.35-1.487.772-2.123 1.265h-.054c-.33.008-.528.157-.59.442 0 .027.009.04.027.041.062.053.077.148.04.281.026 0 .04.006.04.014.063.107.223.126.483.054 0-.018.005-.032.014-.04a2.92 2.92 0 0 0 .361-.282h.068c.26.036.475-.072.645-.322h.066c.09-.018.174-.04.256-.067.027-.001.04-.005.04-.014.152-.24.377-.407.674-.496h.067c.294.028.639.05 1.033.068V6.13zm4.308 5.248c.385.135.749.295 1.09.482.008 0 .013.013.013.04.028.313-.04.526-.202.635a.132.132 0 0 1-.053.013c.126.142.188.356.188.643v.067a20.684 20.684 0 0 1-3.68-.133h-.054a1.393 1.393 0 0 0-.456-.242.163.163 0 0 0-.066-.013 5.188 5.188 0 0 0-.954-.86.056.056 0 0 1-.014-.039.599.599 0 0 1-.2-.055.131.131 0 0 0-.054-.016c-.018-.08-.06-.133-.12-.16-.01-.001-.015-.014-.015-.042a1.867 1.867 0 0 1-.683-.28c-.01 0-.013-.014-.013-.04-.189.007-.34-.02-.446-.082a.053.053 0 0 1-.015-.04c-.188 0-.357.018-.51.054a.239.239 0 0 1-.067.013c-.106-.107-.195-.134-.268-.08a.129.129 0 0 1-.053.013 1.423 1.423 0 0 0-.31.578.149.149 0 0 0-.012.066c.294.215.505.516.63.903a.15.15 0 0 1 .013.067c-.08.133-.157.28-.228.442h-.026a7.493 7.493 0 0 0-.014 1.49.152.152 0 0 1 .014.066 3.354 3.354 0 0 1 1.02.027v-.027c.215-.134.426-.273.633-.415.009-.01.013-.023.014-.041.206.188.348.443.43.765-.001.01.008.013.026.013a3.761 3.761 0 0 0-.187.699v.067c-.134.106-.27.21-.404.308a.137.137 0 0 1-.053.013 1.625 1.625 0 0 1-.594-.175.132.132 0 0 0-.054-.013 1.833 1.833 0 0 1-.321-.643 5.039 5.039 0 0 0-.402-.31c-.01-.008-.027-.012-.054-.012a10.223 10.223 0 0 0 .2 2.119 3.55 3.55 0 0 0-.12.268.107.107 0 0 0-.013.055 1.327 1.327 0 0 0-.175.147c-.007.008-.013.027-.013.054-.24.036-.439.116-.59.241a.119.119 0 0 1-.055.017h-.712a3.612 3.612 0 0 1-.643-.486v.027a1.592 1.592 0 0 1-.456.12.126.126 0 0 1-.054.013 2.256 2.256 0 0 1-.59-.308.12.12 0 0 0-.053-.013c-.073-.127-.095-.301-.067-.524v-.053a3.14 3.14 0 0 1 .75-1.061c.01-.008.014-.022.014-.039.188-.107.358-.121.51-.041.008.01.014.023.014.041.232.017.47-.058.71-.23v.042a.697.697 0 0 1-.148.429.097.097 0 0 1-.053.014c.018.295.04.509.066.643v.067c.153.143.327.148.525.013a.137.137 0 0 1 .053-.013c0-1.223.014-2.557.041-3.998h-.04c-.083.197-.162.393-.242.59a.106.106 0 0 0-.013.054.822.822 0 0 0-.283.24.042.042 0 0 1-.04.028.35.35 0 0 1-.054.202c-.009.008-.013.027-.013.055a7.606 7.606 0 0 1-2.132 1.716.149.149 0 0 1-.055.013.494.494 0 0 0-.322-.187h-.067a.392.392 0 0 0-.04-.202c-.019-.018-.028-.036-.028-.053l-.174-.147c-.008-.01-.014-.028-.014-.054a1.14 1.14 0 0 1 .243-.27c.007-.008.013-.026.013-.053.09 0 .157-.013.2-.04a.134.134 0 0 1 .055-.013c.484-.492.921-1.023 1.314-1.597.008-.01.022-.013.04-.013.135-.305.283-.587.444-.845a.16.16 0 0 0 .014-.067.172.172 0 0 0 .147-.11.058.058 0 0 1 .04-.015c.134-.34.305-.644.51-.912a.112.112 0 0 0 .013-.053c-.276.26-.617.46-1.02.603-.009 0-.013.013-.013.04h-.78a.533.533 0 0 0-.254-.122.18.18 0 0 0-.067-.012l-.335-.496c-.009-.01-.027-.014-.054-.013a1.16 1.16 0 0 1 .375-.537c.009-.009.013-.023.014-.041.232-.072.492-.117.778-.135h.067a.753.753 0 0 1 .255-.119.127.127 0 0 1 .066-.014c.127-.17.27-.328.43-.47.01-.01.013-.022.014-.04a.814.814 0 0 0 .51-.335c.01-.01.013-.026.013-.054a2.87 2.87 0 0 0 .98-.63c.01-.01.023-.014.041-.014a.894.894 0 0 1 .281-.563c.008-.01.022-.014.04-.014.142-.295.321-.544.537-.75.008-.019.027-.028.053-.028.44-.036.932-.036 1.48 0h.067a2.114 2.114 0 0 1 .322.711c0 .17-.04.304-.121.403-.008.008-.014.027-.014.054-.482.16-.935.347-1.356.562a.123.123 0 0 1-.055.014 4.47 4.47 0 0 0-.282.31.068.068 0 0 1-.04.013c-.09.214-.174.428-.256.643a.168.168 0 0 0-.013.068c.315-.028.619-.028.917 0h.053c.528.224 1.069.433 1.624.629a.1.1 0 0 0 .053.013c.08.154.183.287.308.403.01.009.013.024.015.04.187-.008.313.041.375.15.009.007.013.025.013.052.903.142 1.825.188 2.764.135a.265.265 0 0 1 .068-.013zm7.868 2.364v-.04c.099.027.099.04 0 .04zm1.544.858h.068c.116.142.219.299.309.47.007.008.013.027.013.054.071.276.071.62 0 1.033v.053a2.607 2.607 0 0 0-.31.591.12.12 0 0 0-.012.053c-.163.064-.246.193-.256.39v.066c-.24.08-.442.206-.603.376a.063.063 0 0 1-.04.013c-.403-.071-.658-.285-.765-.643a.187.187 0 0 1-.014-.067c-.216-.099-.283-.251-.202-.457a.12.12 0 0 0 .014-.053.482.482 0 0 1-.133-.322v-.068c.179-.233.389-.228.63.013.008.01.013.028.013.055a.424.424 0 0 1 .202.04.11.11 0 0 0 .053.013c.117.188.268.336.456.444.017.007.04.012.067.012.125-.116.317-.18.578-.187h.067c.009-.188-.032-.322-.12-.404a.102.102 0 0 1-.015-.053c-.205.018-.314-.067-.322-.255v-.066c-.259-.188-.497-.295-.71-.322h-.068c-.125-.053-.17-.103-.133-.149a.06.06 0 0 0 .013-.04c.044-.071.084-.138.12-.2v-.068c.098-.117.202-.227.31-.335a.058.058 0 0 0 .013-.04c.295.027.553.046.777.053zm-4.579-2.74v-.026c.098.026.098.034 0 .026zm1.033-1.797v.026c-.017.196-.085.344-.2.444a.148.148 0 0 1-.054.013c-.107.286-.152.522-.134.71v.067c-.108.188-.219.375-.335.564-.01.009-.028.013-.054.013-.161-.116-.264-.29-.31-.522a.143.143 0 0 1-.013-.055.653.653 0 0 0 .134-.269v-.053c.33-.313.653-.625.966-.938zm0-.068V9.97c.099.019.099.026 0 .027zm1.869-5.894a.142.142 0 0 1-.013.055 6.079 6.079 0 0 1-.43.657.173.173 0 0 0-.067.013 7.225 7.225 0 0 1-.58.242.144.144 0 0 1-.014.054.594.594 0 0 1-.376.268c-.026 0-.04.004-.04.013a1.994 1.994 0 0 1-.603.769.135.135 0 0 1-.015.053c-.035.178-.032.375.015.59h.04c.028.072.076.113.147.12 0 .027.005.05.014.067a.31.31 0 0 0 .242.255c0 .028.004.05.013.068.036.296.076.662.12 1.101-.016 0-.031.004-.04.013-.08.133-.218.214-.415.24v.055c-.046.187-.17.299-.377.335 0 .018-.009.031-.026.04a17.716 17.716 0 0 1-1.584 1.57.119.119 0 0 1-.013.054c-.036.044-.054.112-.054.202-.026-.001-.045.003-.053.013a1.502 1.502 0 0 0-.148.173.17.17 0 0 0 .013.068c.01.305.095.54.255.711h.055c.162.036.313.08.455.125a.147.147 0 0 0 .054-.015c.117-.053.228-.113.336-.176.017 0 .034.003.052.012.127.055.148.16.068.313a.051.051 0 0 0-.04.013c-.277.393-.563.773-.858 1.14a.146.146 0 0 0-.055.014.353.353 0 0 1-.2.054c0 .027-.005.04-.013.04-.063.027-.081.098-.054.215-.019-.002-.036.009-.055.026-.384.312-.75.648-1.1 1.007.08.374.314.496.698.362.007 0 .012-.013.014-.04.16-.009.308-.009.443 0h.066c.296-.198.546-.435.751-.711.019-.018.028-.036.028-.054a2.658 2.658 0 0 0 1.073-1.167.161.161 0 0 0 .014-.068 2.07 2.07 0 0 0 .523-.347v.025c-.071.197.014.273.254.229v.04a1.9 1.9 0 0 1-.16 1.073c0 .009-.013.013-.04.013.062.233.048.43-.04.591a.1.1 0 0 0-.014.054c-.18.384-.308.813-.389 1.288v.066c.134.188.237.403.309.644.009.019.012.04.012.068.097.053.179.12.242.2a.134.134 0 0 1 .013.055h.321a.82.82 0 0 0 .259.12c.029.008.05.013.069.014.124-.054.236-.116.335-.189.009-.009.026-.013.053-.013.018.044.018.174 0 .389v.068c.179.288.304.633.375 1.037.01.016.014.034.014.053.063.151.188.25.376.295v.027c.608.09 1.127.01 1.557-.242a.11.11 0 0 1 .053-.013.812.812 0 0 1 .402-.376.116.116 0 0 1 .056-.013.269.269 0 0 0 .066-.192v-.067c.178-.097.335-.219.468-.36.01-.02.024-.028.042-.028.116-.331.231-.67.348-1.02h.04c.117-.484.098-.894-.054-1.234a.139.139 0 0 1-.013-.055c.036-.106.027-.255-.026-.441-.001-.01-.014-.015-.042-.015.037-.18.023-.313-.04-.402-.009-.01-.013-.026-.013-.053a1.489 1.489 0 0 1-.375-.337c-.01-.008-.014-.022-.014-.04a.702.702 0 0 1-.403-.187c-.007-.01-.025-.014-.053-.013-.545-.18-1.145-.162-1.797.053a.364.364 0 0 1-.068.014 1.446 1.446 0 0 1-.174-.149c-.01-.009-.014-.022-.014-.04a1.035 1.035 0 0 0-.12-.335.106.106 0 0 1-.014-.054c.186-.259.389-.513.603-.764.01-.01.024-.014.042-.014.188.018.375-.072.563-.268.007-.009.013-.026.014-.054 1.073-.288 2-.713 2.777-1.278a.1.1 0 0 1 .053-.012v-.512c-.018 0-.032-.004-.04-.013-.18-.303-.487-.473-.927-.51a.136.136 0 0 1-.053-.012.952.952 0 0 0-.455-.175c-.02 0-.032.005-.04.014a.685.685 0 0 1-.148.241.167.167 0 0 0-.067.013c-.331.152-.632.233-.9.242-.026 0-.04.004-.04.014-.07.117-.21.156-.416.12 0 .017-.004.031-.013.04a14.98 14.98 0 0 1-1.208.538.156.156 0 0 0-.014-.055c-.098-.24-.137-.546-.12-.912.027 0 .04-.005.04-.014.124-.161.264-.303.415-.429 0-.027.006-.049.014-.067a.462.462 0 0 0 .054-.201c.017 0 .027-.005.027-.014a.204.204 0 0 1 .161-.108.15.15 0 0 1 .013-.067c.008-.09.028-.173.055-.254a.114.114 0 0 0 .053-.013c.09-.062.134-.166.134-.308a.196.196 0 0 0 .068-.015.523.523 0 0 0 .321-.307c0-.028-.004-.046-.013-.053a1.39 1.39 0 0 0-.563-.47h-.068c-.34-.01-.579.013-.711.067-.017 0-.032.002-.04.012a.564.564 0 0 1-.402.188c-.028-.001-.046-.008-.054-.027a4.828 4.828 0 0 1-.862-1.005c.186-.011.324-.068.415-.174.009-.019.023-.029.04-.029.055.054.159.046.313-.026.008 0 .012-.01.014-.027.481-.062.98-.21 1.489-.443a.117.117 0 0 1 .053-.013c.044-.045.085-.09.12-.133a.171.171 0 0 0 .015-.055c.266.009.428-.1.483-.325h.027c-.018-.09-.036-.18-.056-.269a.134.134 0 0 1-.013-.054c-.233-.09-.378-.262-.441-.522v-.067a2.218 2.218 0 0 1-.497-.456c-.018-.019-.027-.037-.027-.055h-.255z" fill="#FFF"/></svg>