<?xml version="1.0" standalone="no"?><!DOCTYPE svg PUBLIC "-//W3C//DTD SVG 1.1//EN" "http://www.w3.org/Graphics/SVG/1.1/DTD/svg11.dtd"><svg class="icon" width="25px" height="25.00px" viewBox="0 0 1024 1024" version="1.1" xmlns="http://www.w3.org/2000/svg"><path fill="#808080" d="M751.138472 715.552999 624.026446 588.422554c-0.487094-0.456395-1.055029-0.819668-1.557472-1.232061l-15.168468-11.873422 9.490142-14.510482c20.267603-31.075763 30.964222-67.110467 30.964222-104.185874 0-105.514125-85.758176-191.31528-191.169971-191.31528s-191.141318 85.817528-191.141318 191.31528c0 105.482403 85.758176 191.281511 191.141318 191.281511 36.978193 0 72.979128-10.68127 104.083543-30.933523l15.107069-9.830903L587.289754 622.408599c0.441045 0.592494 0.874927 1.228991 1.325182 1.725294L715.827245 751.346203c4.742001 4.742001 11.000542 7.348362 17.660218 7.348362 6.678096 0 12.93152-2.612501 17.663288-7.302313 9.874905-9.899464 9.874905-25.993001 0-35.839253l0 0L751.138472 715.552999zM456.568527 604.354408c-81.56876 0-147.910725-66.285682-147.910725-147.764392 0-81.47564 66.363454-147.782811 147.910725-147.782811 81.5749 0 147.932214 66.285682 147.932214 147.782811C604.50074 538.065655 538.15366 604.354408 456.568527 604.354408L456.568527 604.354408 456.568527 604.354408zM456.568527 604.354408" /></svg>